# xmcd
# 
# Track frame offsets:
#     150
#     16663
#     31655
#     62418
#     79969
#     96364
#     112077
#     128815
#     143166
#     165803
#     175711
# 
# Disc length: 2500
# 
# Revision: 0
# Processed by: cddbd v1.5.2PL0 Copyright (c) Steve Scherf et al.
# Submitted via: fre:ac v1.0.31
# 
DISCID=7d09c20b
DTITLE=Linda Thompson - Won't Be Long Now
DYEAR=2013
DGENRE=Folk
TTITLE0=Love's for Babies and Fools
TTITLE1=Never Put To Sea Boys
TTITLE2=If I Were a Bluebird
TTITLE3=As Fast As My Feet
TTITLE4=Father Son Ballad
TTITLE5=Nursery Rhyme of Innocence and Experience
TTITLE6=Mr. Tams
TTITLE7=Paddy's Lamentation
TTITLE8=Never the Bride
TTITLE9=Blue Bleezin' Blind Drunk
TTITLE10=It Won't Be Long Now
EXTD=
EXTT0=
EXTT1=
EXTT2=
EXTT3=
EXTT4=
EXTT5=
EXTT6=
EXTT7=
EXTT8=
EXTT9=
EXTT10=
PLAYORDER=
